{"title":"Krampus.2015.720p.HDRip.x264.AC3-REMO","uid":13682460,"size":1200869270,"categoryP":"video","categoryS":"movies","magnet":"?xt=urn:btih:c5a6d58ad15607e2bbfe4fdad5bd12e7f81b6a35&amp;dn=Krampus.2015.720p.HDRip.x264.AC3-REMO&amp;tr=udp%3A%2F%2Ftracker.leechers-paradise.org%3A6969&amp;tr=udp%3A%2F%2Fzer0day.ch%3A1337&amp;tr=udp%3A%2F%2Fopen.demonii.com%3A1337&amp;tr=udp%3A%2F%2Ftracker.coppersurfer.tk%3A6969&amp;tr=udp%3A%2F%2Fexodus.desync.com%3A6969","seeders":2,"leechers":3,"uploader":"Supernova","files":2,"time":1456494013,"description":"http://boltimg.com/image/IumA\r\n\r\nGeneral\r\n\r\nComplete name                            : Krampus.2015.720p.HDRip.x264.AC3-REMO.mkv\r\nFormat                                   : Matroska\r\nFormat version                           : Version 2\r\nFile size                                : 1.12 GiB\r\nDuration                                 : 1h 37mn\r\nOverall bit rate                         : 1 639 Kbps\r\n\r\n\r\nVideo\r\nID                                       : 1\r\nFormat                                   : AVC\r\nFormat/Info                              : Advanced Video Codec\r\nFormat profile                           :   \r\nFormat settings, CABAC                   : Yes\r\nFormat settings, ReFrames                : 6 frames\r\nCodec ID                                 : V_MPEG4/ISO/AVC\r\nDuration                                 : 1h 37mn\r\nBit rate                                 : 1 250 Kbps\r\nWidth                                    : 1 280 pixels\r\nHeight                                   : 528 pixels\r\nDisplay aspect ratio                     : 2.40:1\r\nFrame rate mode                          : Constant\r\nFrame rate                               : 23.976 fps\r\nColor space                              : YUV\r\nChroma subsampling                       : 4:2:0\r\nBit depth                                : 8 bits\r\nScan type                                : Progressive\r\nBits/(Pixel*Frame)                       : 0.077\r\nStream size                              : 854 MiB (75%)\r\nWriting library                          : x264 core 130 r2273 b3065e6\r\nLanguage                                 : English\r\nDefault                                  : Yes\r\nForced                                   : No\r\nColor range                              : Limited\r\nColor primaries                          : BT.709\r\nTransfer characteristics                 : BT.709\r\nMatrix coefficients                      : BT.709\r\n\r\nAudio\r\nID                                       : 2\r\nFormat                                   : AC-3\r\nFormat/Info                              : Audio Coding 3\r\nMode extension                           : CM (complete main)\r\nFormat settings, Endianness              : Big\r\nCodec ID                                 : A_AC3\r\nDuration                                 : 1h 37mn\r\nBit rate mode                            : Constant\r\nBit rate                                 : 384 Kbps\r\nChannel(s)                               : 6 channels\r\nChannel positions                        : Front: L C R, Side: L R, LFE\r\nSampling rate                            : 48.0 KHz\r\nCompression mode                         : Lossy\r\nStream size                              : 268 MiB (23%)\r\nLanguage                                 : English\r\nDefault                                  : Yes\r\nForced                                   : No\r\n\r\nSCREENS\r\n \nhttp://boltimg.com/image/IB5k","torrent":{"xt":"urn:btih:c5a6d58ad15607e2bbfe4fdad5bd12e7f81b6a35","amp;dn":"Krampus.2015.720p.HDRip.x264.AC3-REMO","amp;tr":["udp%3A%2F%2Ftracker.leechers-paradise.org%3A6969","udp%3A%2F%2Fzer0day.ch%3A1337","udp%3A%2F%2Fopen.demonii.com%3A1337","udp%3A%2F%2Ftracker.coppersurfer.tk%3A6969","udp%3A%2F%2Fexodus.desync.com%3A6969"],"infoHash":"c5a6d58ad15607e2bbfe4fdad5bd12e7f81b6a35","infoHashBuffer":{"type":"Buffer","data":[197,166,213,138,209,86,7,226,187,254,79,218,213,189,18,231,248,27,106,53]},"announce":[],"urlList":[]}}